<svg width="125" height="125" viewBox="0 0 125 125" fill="none" xmlns="http://www.w3.org/2000/svg">
<g clip-path="url(#clip0_1_2)">
<path fill-rule="evenodd" clip-rule="evenodd" d="M20.3125 12.5C20.3125 16.8148 16.8148 20.3125 12.5 20.3125C8.18516 20.3125 4.6875 16.8148 4.6875 12.5C4.6875 8.18516 8.18516 4.6875 12.5 4.6875C16.8148 4.6875 20.3125 8.18516 20.3125 12.5ZM21.875 12.5C21.875 17.6773 17.6773 21.875 12.5 21.875C7.32266 21.875 3.125 17.6773 3.125 12.5C3.125 7.32266 7.32266 3.125 12.5 3.125C17.6773 3.125 21.875 7.32266 21.875 12.5Z" fill="#077C6E"/>
<path fill-rule="evenodd" clip-rule="evenodd" d="M12.2187 13.2812C12.0115 13.2812 11.8128 13.1989 11.6663 13.0524C11.5198 12.9059 11.4375 12.7072 11.4375 12.5V7.03125C11.4375 6.82405 11.5198 6.62534 11.6663 6.47882C11.8128 6.33231 12.0115 6.25 12.2187 6.25C12.426 6.25 12.6247 6.33231 12.7712 6.47882C12.9177 6.62534 13 6.82405 13 7.03125V12.5C13 12.7072 12.9177 12.9059 12.7712 13.0524C12.6247 13.1989 12.426 13.2812 12.2187 13.2812Z" fill="#077C6E"/>
<path fill-rule="evenodd" clip-rule="evenodd" d="M16.9547 15.2359C16.8511 15.4154 16.6804 15.5463 16.4803 15.5999C16.2802 15.6535 16.0669 15.6255 15.8875 15.5219L11.8281 13.1781C11.6502 13.0738 11.5207 12.9033 11.4679 12.7038C11.4152 12.5044 11.4435 12.2922 11.5467 12.1135C11.6498 11.9349 11.8194 11.8042 12.0185 11.7502C12.2176 11.6961 12.43 11.723 12.6094 11.825L16.6687 14.1687C16.8482 14.2724 16.9791 14.443 17.0327 14.6431C17.0864 14.8433 17.0583 15.0565 16.9547 15.2359Z" fill="#077C6E"/>
<path fill-rule="evenodd" clip-rule="evenodd" d="M45.3125 12.5C45.3125 16.8148 41.8148 20.3125 37.5 20.3125C33.1852 20.3125 29.6875 16.8148 29.6875 12.5C29.6875 8.18516 33.1852 4.6875 37.5 4.6875C41.8148 4.6875 45.3125 8.18516 45.3125 12.5ZM46.875 12.5C46.875 17.6773 42.6773 21.875 37.5 21.875C32.3227 21.875 28.125 17.6773 28.125 12.5C28.125 7.32266 32.3227 3.125 37.5 3.125C42.6773 3.125 46.875 7.32266 46.875 12.5Z" fill="#077C6E"/>
<path fill-rule="evenodd" clip-rule="evenodd" d="M37.2187 13.2812C37.0115 13.2812 36.8128 13.1989 36.6663 13.0524C36.5198 12.9059 36.4375 12.7072 36.4375 12.5V7.03125C36.4375 6.82405 36.5198 6.62534 36.6663 6.47882C36.8128 6.33231 37.0115 6.25 37.2187 6.25C37.426 6.25 37.6247 6.33231 37.7712 6.47882C37.9177 6.62534 38 6.82405 38 7.03125V12.5C38 12.7072 37.9177 12.9059 37.7712 13.0524C37.6247 13.1989 37.426 13.2812 37.2187 13.2812Z" fill="#077C6E"/>
<path fill-rule="evenodd" clip-rule="evenodd" d="M41.9547 15.2359C41.8511 15.4154 41.6804 15.5463 41.4803 15.5999C41.2802 15.6535 41.0669 15.6255 40.8875 15.5219L36.8281 13.1781C36.6502 13.0738 36.5207 12.9033 36.4679 12.7038C36.4152 12.5044 36.4435 12.2922 36.5467 12.1135C36.6498 11.9349 36.8194 11.8042 37.0185 11.7502C37.2176 11.6961 37.43 11.723 37.6094 11.825L41.6687 14.1687C41.8482 14.2724 41.9791 14.443 42.0327 14.6431C42.0864 14.8433 42.0583 15.0565 41.9547 15.2359Z" fill="#077C6E"/>
<path fill-rule="evenodd" clip-rule="evenodd" d="M70.3125 12.5C70.3125 16.8148 66.8148 20.3125 62.5 20.3125C58.1852 20.3125 54.6875 16.8148 54.6875 12.5C54.6875 8.18516 58.1852 4.6875 62.5 4.6875C66.8148 4.6875 70.3125 8.18516 70.3125 12.5ZM71.875 12.5C71.875 17.6773 67.6773 21.875 62.5 21.875C57.3227 21.875 53.125 17.6773 53.125 12.5C53.125 7.32266 57.3227 3.125 62.5 3.125C67.6773 3.125 71.875 7.32266 71.875 12.5Z" fill="#077C6E"/>
<path fill-rule="evenodd" clip-rule="evenodd" d="M62.2187 13.2812C62.0115 13.2812 61.8128 13.1989 61.6663 13.0524C61.5198 12.9059 61.4375 12.7072 61.4375 12.5V7.03125C61.4375 6.82405 61.5198 6.62534 61.6663 6.47882C61.8128 6.33231 62.0115 6.25 62.2187 6.25C62.426 6.25 62.6247 6.33231 62.7712 6.47882C62.9177 6.62534 63 6.82405 63 7.03125V12.5C63 12.7072 62.9177 12.9059 62.7712 13.0524C62.6247 13.1989 62.426 13.2812 62.2187 13.2812Z" fill="#077C6E"/>
<path fill-rule="evenodd" clip-rule="evenodd" d="M66.9547 15.2359C66.8511 15.4154 66.6804 15.5463 66.4803 15.5999C66.2802 15.6535 66.0669 15.6255 65.8875 15.5219L61.8281 13.1781C61.6502 13.0738 61.5207 12.9033 61.4679 12.7038C61.4152 12.5044 61.4435 12.2922 61.5467 12.1135C61.6498 11.9349 61.8194 11.8042 62.0185 11.7502C62.2176 11.6961 62.43 11.723 62.6094 11.825L66.6687 14.1687C66.8482 14.2724 66.9791 14.443 67.0327 14.6431C67.0864 14.8433 67.0583 15.0565 66.9547 15.2359Z" fill="#077C6E"/>
<path fill-rule="evenodd" clip-rule="evenodd" d="M95.3125 12.5C95.3125 16.8148 91.8148 20.3125 87.5 20.3125C83.1852 20.3125 79.6875 16.8148 79.6875 12.5C79.6875 8.18516 83.1852 4.6875 87.5 4.6875C91.8148 4.6875 95.3125 8.18516 95.3125 12.5ZM96.875 12.5C96.875 17.6773 92.6773 21.875 87.5 21.875C82.3227 21.875 78.125 17.6773 78.125 12.5C78.125 7.32266 82.3227 3.125 87.5 3.125C92.6773 3.125 96.875 7.32266 96.875 12.5Z" fill="#077C6E"/>
<path fill-rule="evenodd" clip-rule="evenodd" d="M87.2187 13.2812C87.0115 13.2812 86.8128 13.1989 86.6663 13.0524C86.5198 12.9059 86.4375 12.7072 86.4375 12.5V7.03125C86.4375 6.82405 86.5198 6.62534 86.6663 6.47882C86.8128 6.33231 87.0115 6.25 87.2187 6.25C87.426 6.25 87.6247 6.33231 87.7712 6.47882C87.9177 6.62534 88 6.82405 88 7.03125V12.5C88 12.7072 87.9177 12.9059 87.7712 13.0524C87.6247 13.1989 87.426 13.2812 87.2187 13.2812Z" fill="#077C6E"/>
<path fill-rule="evenodd" clip-rule="evenodd" d="M91.9547 15.2359C91.8511 15.4154 91.6804 15.5463 91.4803 15.5999C91.2802 15.6535 91.0669 15.6255 90.8875 15.5219L86.8281 13.1781C86.6502 13.0738 86.5207 12.9033 86.4679 12.7038C86.4152 12.5044 86.4435 12.2922 86.5467 12.1135C86.6498 11.9349 86.8194 11.8042 87.0185 11.7502C87.2176 11.6961 87.43 11.723 87.6094 11.825L91.6687 14.1687C91.8482 14.2724 91.9791 14.443 92.0327 14.6431C92.0864 14.8433 92.0583 15.0565 91.9547 15.2359Z" fill="#077C6E"/>
<path fill-rule="evenodd" clip-rule="evenodd" d="M120.312 12.5C120.312 16.8148 116.815 20.3125 112.5 20.3125C108.185 20.3125 104.688 16.8148 104.688 12.5C104.688 8.18516 108.185 4.6875 112.5 4.6875C116.815 4.6875 120.312 8.18516 120.312 12.5ZM121.875 12.5C121.875 17.6773 117.677 21.875 112.5 21.875C107.323 21.875 103.125 17.6773 103.125 12.5C103.125 7.32266 107.323 3.125 112.5 3.125C117.677 3.125 121.875 7.32266 121.875 12.5Z" fill="#077C6E"/>
<path fill-rule="evenodd" clip-rule="evenodd" d="M112.219 13.2812C112.012 13.2812 111.813 13.1989 111.666 13.0524C111.52 12.9059 111.438 12.7072 111.438 12.5V7.03125C111.438 6.82405 111.52 6.62534 111.666 6.47882C111.813 6.33231 112.012 6.25 112.219 6.25C112.426 6.25 112.625 6.33231 112.771 6.47882C112.918 6.62534 113 6.82405 113 7.03125V12.5C113 12.7072 112.918 12.9059 112.771 13.0524C112.625 13.1989 112.426 13.2812 112.219 13.2812Z" fill="#077C6E"/>
<path fill-rule="evenodd" clip-rule="evenodd" d="M116.955 15.2359C116.851 15.4154 116.68 15.5463 116.48 15.5999C116.28 15.6535 116.067 15.6255 115.887 15.5219L111.828 13.1781C111.65 13.0738 111.521 12.9033 111.468 12.7038C111.415 12.5044 111.444 12.2922 111.547 12.1135C111.65 11.9349 111.819 11.8042 112.019 11.7502C112.218 11.6961 112.43 11.723 112.609 11.825L116.669 14.1687C116.848 14.2724 116.979 14.443 117.033 14.6431C117.086 14.8433 117.058 15.0565 116.955 15.2359Z" fill="#077C6E"/>
<path fill-rule="evenodd" clip-rule="evenodd" d="M20.3125 112.5C20.3125 116.815 16.8148 120.312 12.5 120.312C8.18516 120.312 4.6875 116.815 4.6875 112.5C4.6875 108.185 8.18516 104.688 12.5 104.688C16.8148 104.688 20.3125 108.185 20.3125 112.5ZM21.875 112.5C21.875 117.677 17.6773 121.875 12.5 121.875C7.32266 121.875 3.125 117.677 3.125 112.5C3.125 107.323 7.32266 103.125 12.5 103.125C17.6773 103.125 21.875 107.323 21.875 112.5Z" fill="#077C6E"/>
<path fill-rule="evenodd" clip-rule="evenodd" d="M12.2187 113.281C12.0115 113.281 11.8128 113.199 11.6663 113.052C11.5198 112.906 11.4375 112.707 11.4375 112.5V107.031C11.4375 106.824 11.5198 106.625 11.6663 106.479C11.8128 106.332 12.0115 106.25 12.2187 106.25C12.426 106.25 12.6247 106.332 12.7712 106.479C12.9177 106.625 13 106.824 13 107.031V112.5C13 112.707 12.9177 112.906 12.7712 113.052C12.6247 113.199 12.426 113.281 12.2187 113.281Z" fill="#077C6E"/>
<path fill-rule="evenodd" clip-rule="evenodd" d="M16.9547 115.236C16.8511 115.415 16.6804 115.546 16.4803 115.6C16.2802 115.654 16.0669 115.625 15.8875 115.522L11.8281 113.178C11.6502 113.074 11.5207 112.903 11.4679 112.704C11.4152 112.504 11.4435 112.292 11.5467 112.114C11.6498 111.935 11.8194 111.804 12.0185 111.75C12.2176 111.696 12.43 111.723 12.6094 111.825L16.6687 114.169C16.8482 114.272 16.9791 114.443 17.0327 114.643C17.0864 114.843 17.0583 115.056 16.9547 115.236Z" fill="#077C6E"/>
<path fill-rule="evenodd" clip-rule="evenodd" d="M45.3125 112.5C45.3125 116.815 41.8148 120.312 37.5 120.312C33.1852 120.312 29.6875 116.815 29.6875 112.5C29.6875 108.185 33.1852 104.688 37.5 104.688C41.8148 104.688 45.3125 108.185 45.3125 112.5ZM46.875 112.5C46.875 117.677 42.6773 121.875 37.5 121.875C32.3227 121.875 28.125 117.677 28.125 112.5C28.125 107.323 32.3227 103.125 37.5 103.125C42.6773 103.125 46.875 107.323 46.875 112.5Z" fill="#077C6E"/>
<path fill-rule="evenodd" clip-rule="evenodd" d="M37.2187 113.281C37.0115 113.281 36.8128 113.199 36.6663 113.052C36.5198 112.906 36.4375 112.707 36.4375 112.5V107.031C36.4375 106.824 36.5198 106.625 36.6663 106.479C36.8128 106.332 37.0115 106.25 37.2187 106.25C37.426 106.25 37.6247 106.332 37.7712 106.479C37.9177 106.625 38 106.824 38 107.031V112.5C38 112.707 37.9177 112.906 37.7712 113.052C37.6247 113.199 37.426 113.281 37.2187 113.281Z" fill="#077C6E"/>
<path fill-rule="evenodd" clip-rule="evenodd" d="M41.9547 115.236C41.8511 115.415 41.6804 115.546 41.4803 115.6C41.2802 115.654 41.0669 115.625 40.8875 115.522L36.8281 113.178C36.6502 113.074 36.5207 112.903 36.4679 112.704C36.4152 112.504 36.4435 112.292 36.5467 112.114C36.6498 111.935 36.8194 111.804 37.0185 111.75C37.2176 111.696 37.43 111.723 37.6094 111.825L41.6687 114.169C41.8482 114.272 41.9791 114.443 42.0327 114.643C42.0864 114.843 42.0583 115.056 41.9547 115.236Z" fill="#077C6E"/>
<path fill-rule="evenodd" clip-rule="evenodd" d="M70.3125 112.5C70.3125 116.815 66.8148 120.312 62.5 120.312C58.1852 120.312 54.6875 116.815 54.6875 112.5C54.6875 108.185 58.1852 104.688 62.5 104.688C66.8148 104.688 70.3125 108.185 70.3125 112.5ZM71.875 112.5C71.875 117.677 67.6773 121.875 62.5 121.875C57.3227 121.875 53.125 117.677 53.125 112.5C53.125 107.323 57.3227 103.125 62.5 103.125C67.6773 103.125 71.875 107.323 71.875 112.5Z" fill="#077C6E"/>
<path fill-rule="evenodd" clip-rule="evenodd" d="M62.2187 113.281C62.0115 113.281 61.8128 113.199 61.6663 113.052C61.5198 112.906 61.4375 112.707 61.4375 112.5V107.031C61.4375 106.824 61.5198 106.625 61.6663 106.479C61.8128 106.332 62.0115 106.25 62.2187 106.25C62.426 106.25 62.6247 106.332 62.7712 106.479C62.9177 106.625 63 106.824 63 107.031V112.5C63 112.707 62.9177 112.906 62.7712 113.052C62.6247 113.199 62.426 113.281 62.2187 113.281Z" fill="#077C6E"/>
<path fill-rule="evenodd" clip-rule="evenodd" d="M66.9547 115.236C66.8511 115.415 66.6804 115.546 66.4803 115.6C66.2802 115.654 66.0669 115.625 65.8875 115.522L61.8281 113.178C61.6502 113.074 61.5207 112.903 61.4679 112.704C61.4152 112.504 61.4435 112.292 61.5467 112.114C61.6498 111.935 61.8194 111.804 62.0185 111.75C62.2176 111.696 62.43 111.723 62.6094 111.825L66.6687 114.169C66.8482 114.272 66.9791 114.443 67.0327 114.643C67.0864 114.843 67.0583 115.056 66.9547 115.236Z" fill="#077C6E"/>
<path fill-rule="evenodd" clip-rule="evenodd" d="M95.3125 112.5C95.3125 116.815 91.8148 120.312 87.5 120.312C83.1852 120.312 79.6875 116.815 79.6875 112.5C79.6875 108.185 83.1852 104.688 87.5 104.688C91.8148 104.688 95.3125 108.185 95.3125 112.5ZM96.875 112.5C96.875 117.677 92.6773 121.875 87.5 121.875C82.3227 121.875 78.125 117.677 78.125 112.5C78.125 107.323 82.3227 103.125 87.5 103.125C92.6773 103.125 96.875 107.323 96.875 112.5Z" fill="#077C6E"/>
<path fill-rule="evenodd" clip-rule="evenodd" d="M87.2187 113.281C87.0115 113.281 86.8128 113.199 86.6663 113.052C86.5198 112.906 86.4375 112.707 86.4375 112.5V107.031C86.4375 106.824 86.5198 106.625 86.6663 106.479C86.8128 106.332 87.0115 106.25 87.2187 106.25C87.426 106.25 87.6247 106.332 87.7712 106.479C87.9177 106.625 88 106.824 88 107.031V112.5C88 112.707 87.9177 112.906 87.7712 113.052C87.6247 113.199 87.426 113.281 87.2187 113.281Z" fill="#077C6E"/>
<path fill-rule="evenodd" clip-rule="evenodd" d="M91.9547 115.236C91.8511 115.415 91.6804 115.546 91.4803 115.6C91.2802 115.654 91.0669 115.625 90.8875 115.522L86.8281 113.178C86.6502 113.074 86.5207 112.903 86.4679 112.704C86.4152 112.504 86.4435 112.292 86.5467 112.114C86.6498 111.935 86.8194 111.804 87.0185 111.75C87.2176 111.696 87.43 111.723 87.6094 111.825L91.6687 114.169C91.8482 114.272 91.9791 114.443 92.0327 114.643C92.0864 114.843 92.0583 115.056 91.9547 115.236Z" fill="#077C6E"/>
<path fill-rule="evenodd" clip-rule="evenodd" d="M120.312 112.5C120.312 116.815 116.815 120.312 112.5 120.312C108.185 120.312 104.688 116.815 104.688 112.5C104.688 108.185 108.185 104.688 112.5 104.688C116.815 104.688 120.312 108.185 120.312 112.5ZM121.875 112.5C121.875 117.677 117.677 121.875 112.5 121.875C107.323 121.875 103.125 117.677 103.125 112.5C103.125 107.323 107.323 103.125 112.5 103.125C117.677 103.125 121.875 107.323 121.875 112.5Z" fill="#077C6E"/>
<path fill-rule="evenodd" clip-rule="evenodd" d="M112.219 113.281C112.012 113.281 111.813 113.199 111.666 113.052C111.52 112.906 111.438 112.707 111.438 112.5V107.031C111.438 106.824 111.52 106.625 111.666 106.479C111.813 106.332 112.012 106.25 112.219 106.25C112.426 106.25 112.625 106.332 112.771 106.479C112.918 106.625 113 106.824 113 107.031V112.5C113 112.707 112.918 112.906 112.771 113.052C112.625 113.199 112.426 113.281 112.219 113.281Z" fill="#077C6E"/>
<path fill-rule="evenodd" clip-rule="evenodd" d="M116.955 115.236C116.851 115.415 116.68 115.546 116.48 115.6C116.28 115.654 116.067 115.625 115.887 115.522L111.828 113.178C111.65 113.074 111.521 112.903 111.468 112.704C111.415 112.504 111.444 112.292 111.547 112.114C111.65 111.935 111.819 111.804 112.019 111.75C112.218 111.696 112.43 111.723 112.609 111.825L116.669 114.169C116.848 114.272 116.979 114.443 117.033 114.643C117.086 114.843 117.058 115.056 116.955 115.236Z" fill="#077C6E"/>
<path fill-rule="evenodd" clip-rule="evenodd" d="M20.3125 37.5C20.3125 41.8148 16.8148 45.3125 12.5 45.3125C8.18516 45.3125 4.6875 41.8148 4.6875 37.5C4.6875 33.1852 8.18516 29.6875 12.5 29.6875C16.8148 29.6875 20.3125 33.1852 20.3125 37.5ZM21.875 37.5C21.875 42.6773 17.6773 46.875 12.5 46.875C7.32266 46.875 3.125 42.6773 3.125 37.5C3.125 32.3227 7.32266 28.125 12.5 28.125C17.6773 28.125 21.875 32.3227 21.875 37.5Z" fill="#077C6E"/>
<path fill-rule="evenodd" clip-rule="evenodd" d="M12.2187 38.2812C12.0115 38.2812 11.8128 38.1989 11.6663 38.0524C11.5198 37.9059 11.4375 37.7072 11.4375 37.5V32.0312C11.4375 31.824 11.5198 31.6253 11.6663 31.4788C11.8128 31.3323 12.0115 31.25 12.2187 31.25C12.426 31.25 12.6247 31.3323 12.7712 31.4788C12.9177 31.6253 13 31.824 13 32.0312V37.5C13 37.7072 12.9177 37.9059 12.7712 38.0524C12.6247 38.1989 12.426 38.2812 12.2187 38.2812Z" fill="#077C6E"/>
<path fill-rule="evenodd" clip-rule="evenodd" d="M16.9547 40.2359C16.8511 40.4154 16.6804 40.5463 16.4803 40.5999C16.2802 40.6535 16.0669 40.6255 15.8875 40.5219L11.8281 38.1781C11.6502 38.0738 11.5207 37.9033 11.4679 37.7038C11.4152 37.5044 11.4435 37.2922 11.5467 37.1135C11.6498 36.9349 11.8194 36.8042 12.0185 36.7502C12.2176 36.6961 12.43 36.723 12.6094 36.825L16.6687 39.1687C16.8482 39.2724 16.9791 39.443 17.0327 39.6431C17.0864 39.8433 17.0583 40.0565 16.9547 40.2359Z" fill="#077C6E"/>
<path fill-rule="evenodd" clip-rule="evenodd" d="M45.3125 37.5C45.3125 41.8148 41.8148 45.3125 37.5 45.3125C33.1852 45.3125 29.6875 41.8148 29.6875 37.5C29.6875 33.1852 33.1852 29.6875 37.5 29.6875C41.8148 29.6875 45.3125 33.1852 45.3125 37.5ZM46.875 37.5C46.875 42.6773 42.6773 46.875 37.5 46.875C32.3227 46.875 28.125 42.6773 28.125 37.5C28.125 32.3227 32.3227 28.125 37.5 28.125C42.6773 28.125 46.875 32.3227 46.875 37.5Z" fill="#077C6E"/>
<path fill-rule="evenodd" clip-rule="evenodd" d="M37.2187 38.2812C37.0115 38.2812 36.8128 38.1989 36.6663 38.0524C36.5198 37.9059 36.4375 37.7072 36.4375 37.5V32.0312C36.4375 31.824 36.5198 31.6253 36.6663 31.4788C36.8128 31.3323 37.0115 31.25 37.2187 31.25C37.426 31.25 37.6247 31.3323 37.7712 31.4788C37.9177 31.6253 38 31.824 38 32.0312V37.5C38 37.7072 37.9177 37.9059 37.7712 38.0524C37.6247 38.1989 37.426 38.2812 37.2187 38.2812Z" fill="#077C6E"/>
<path fill-rule="evenodd" clip-rule="evenodd" d="M41.9547 40.2359C41.8511 40.4154 41.6804 40.5463 41.4803 40.5999C41.2802 40.6535 41.0669 40.6255 40.8875 40.5219L36.8281 38.1781C36.6502 38.0738 36.5207 37.9033 36.4679 37.7038C36.4152 37.5044 36.4435 37.2922 36.5467 37.1135C36.6498 36.9349 36.8194 36.8042 37.0185 36.7502C37.2176 36.6961 37.43 36.723 37.6094 36.825L41.6687 39.1687C41.8482 39.2724 41.9791 39.443 42.0327 39.6431C42.0864 39.8433 42.0583 40.0565 41.9547 40.2359Z" fill="#077C6E"/>
<path fill-rule="evenodd" clip-rule="evenodd" d="M70.3125 37.5C70.3125 41.8148 66.8148 45.3125 62.5 45.3125C58.1852 45.3125 54.6875 41.8148 54.6875 37.5C54.6875 33.1852 58.1852 29.6875 62.5 29.6875C66.8148 29.6875 70.3125 33.1852 70.3125 37.5ZM71.875 37.5C71.875 42.6773 67.6773 46.875 62.5 46.875C57.3227 46.875 53.125 42.6773 53.125 37.5C53.125 32.3227 57.3227 28.125 62.5 28.125C67.6773 28.125 71.875 32.3227 71.875 37.5Z" fill="#077C6E"/>
<path fill-rule="evenodd" clip-rule="evenodd" d="M62.2187 38.2812C62.0115 38.2812 61.8128 38.1989 61.6663 38.0524C61.5198 37.9059 61.4375 37.7072 61.4375 37.5V32.0312C61.4375 31.824 61.5198 31.6253 61.6663 31.4788C61.8128 31.3323 62.0115 31.25 62.2187 31.25C62.426 31.25 62.6247 31.3323 62.7712 31.4788C62.9177 31.6253 63 31.824 63 32.0312V37.5C63 37.7072 62.9177 37.9059 62.7712 38.0524C62.6247 38.1989 62.426 38.2812 62.2187 38.2812Z" fill="#077C6E"/>
<path fill-rule="evenodd" clip-rule="evenodd" d="M66.9547 40.2359C66.8511 40.4154 66.6804 40.5463 66.4803 40.5999C66.2802 40.6535 66.0669 40.6255 65.8875 40.5219L61.8281 38.1781C61.6502 38.0738 61.5207 37.9033 61.4679 37.7038C61.4152 37.5044 61.4435 37.2922 61.5467 37.1135C61.6498 36.9349 61.8194 36.8042 62.0185 36.7502C62.2176 36.6961 62.43 36.723 62.6094 36.825L66.6687 39.1687C66.8482 39.2724 66.9791 39.443 67.0327 39.6431C67.0864 39.8433 67.0583 40.0565 66.9547 40.2359Z" fill="#077C6E"/>
<path fill-rule="evenodd" clip-rule="evenodd" d="M95.3125 37.5C95.3125 41.8148 91.8148 45.3125 87.5 45.3125C83.1852 45.3125 79.6875 41.8148 79.6875 37.5C79.6875 33.1852 83.1852 29.6875 87.5 29.6875C91.8148 29.6875 95.3125 33.1852 95.3125 37.5ZM96.875 37.5C96.875 42.6773 92.6773 46.875 87.5 46.875C82.3227 46.875 78.125 42.6773 78.125 37.5C78.125 32.3227 82.3227 28.125 87.5 28.125C92.6773 28.125 96.875 32.3227 96.875 37.5Z" fill="#077C6E"/>
<path fill-rule="evenodd" clip-rule="evenodd" d="M87.2187 38.2812C87.0115 38.2812 86.8128 38.1989 86.6663 38.0524C86.5198 37.9059 86.4375 37.7072 86.4375 37.5V32.0312C86.4375 31.824 86.5198 31.6253 86.6663 31.4788C86.8128 31.3323 87.0115 31.25 87.2187 31.25C87.426 31.25 87.6247 31.3323 87.7712 31.4788C87.9177 31.6253 88 31.824 88 32.0312V37.5C88 37.7072 87.9177 37.9059 87.7712 38.0524C87.6247 38.1989 87.426 38.2812 87.2187 38.2812Z" fill="#077C6E"/>
<path fill-rule="evenodd" clip-rule="evenodd" d="M91.9547 40.2359C91.8511 40.4154 91.6804 40.5463 91.4803 40.5999C91.2802 40.6535 91.0669 40.6255 90.8875 40.5219L86.8281 38.1781C86.6502 38.0738 86.5207 37.9033 86.4679 37.7038C86.4152 37.5044 86.4435 37.2922 86.5467 37.1135C86.6498 36.9349 86.8194 36.8042 87.0185 36.7502C87.2176 36.6961 87.43 36.723 87.6094 36.825L91.6687 39.1687C91.8482 39.2724 91.9791 39.443 92.0327 39.6431C92.0864 39.8433 92.0583 40.0565 91.9547 40.2359Z" fill="#077C6E"/>
<path fill-rule="evenodd" clip-rule="evenodd" d="M120.312 37.5C120.312 41.8148 116.815 45.3125 112.5 45.3125C108.185 45.3125 104.688 41.8148 104.688 37.5C104.688 33.1852 108.185 29.6875 112.5 29.6875C116.815 29.6875 120.312 33.1852 120.312 37.5ZM121.875 37.5C121.875 42.6773 117.677 46.875 112.5 46.875C107.323 46.875 103.125 42.6773 103.125 37.5C103.125 32.3227 107.323 28.125 112.5 28.125C117.677 28.125 121.875 32.3227 121.875 37.5Z" fill="#077C6E"/>
<path fill-rule="evenodd" clip-rule="evenodd" d="M112.219 38.2812C112.012 38.2812 111.813 38.1989 111.666 38.0524C111.52 37.9059 111.438 37.7072 111.438 37.5V32.0312C111.438 31.824 111.52 31.6253 111.666 31.4788C111.813 31.3323 112.012 31.25 112.219 31.25C112.426 31.25 112.625 31.3323 112.771 31.4788C112.918 31.6253 113 31.824 113 32.0312V37.5C113 37.7072 112.918 37.9059 112.771 38.0524C112.625 38.1989 112.426 38.2812 112.219 38.2812Z" fill="#077C6E"/>
<path fill-rule="evenodd" clip-rule="evenodd" d="M116.955 40.2359C116.851 40.4154 116.68 40.5463 116.48 40.5999C116.28 40.6535 116.067 40.6255 115.887 40.5219L111.828 38.1781C111.65 38.0738 111.521 37.9033 111.468 37.7038C111.415 37.5044 111.444 37.2922 111.547 37.1135C111.65 36.9349 111.819 36.8042 112.019 36.7502C112.218 36.6961 112.43 36.723 112.609 36.825L116.669 39.1687C116.848 39.2724 116.979 39.443 117.033 39.6431C117.086 39.8433 117.058 40.0565 116.955 40.2359Z" fill="#077C6E"/>
<path fill-rule="evenodd" clip-rule="evenodd" d="M20.3125 62.5C20.3125 66.8148 16.8148 70.3125 12.5 70.3125C8.18516 70.3125 4.6875 66.8148 4.6875 62.5C4.6875 58.1852 8.18516 54.6875 12.5 54.6875C16.8148 54.6875 20.3125 58.1852 20.3125 62.5ZM21.875 62.5C21.875 67.6773 17.6773 71.875 12.5 71.875C7.32266 71.875 3.125 67.6773 3.125 62.5C3.125 57.3227 7.32266 53.125 12.5 53.125C17.6773 53.125 21.875 57.3227 21.875 62.5Z" fill="#077C6E"/>
<path fill-rule="evenodd" clip-rule="evenodd" d="M12.2187 63.2812C12.0115 63.2812 11.8128 63.1989 11.6663 63.0524C11.5198 62.9059 11.4375 62.7072 11.4375 62.5V57.0312C11.4375 56.824 11.5198 56.6253 11.6663 56.4788C11.8128 56.3323 12.0115 56.25 12.2187 56.25C12.426 56.25 12.6247 56.3323 12.7712 56.4788C12.9177 56.6253 13 56.824 13 57.0312V62.5C13 62.7072 12.9177 62.9059 12.7712 63.0524C12.6247 63.1989 12.426 63.2812 12.2187 63.2812Z" fill="#077C6E"/>
<path fill-rule="evenodd" clip-rule="evenodd" d="M16.9547 65.2359C16.8511 65.4154 16.6804 65.5463 16.4803 65.5999C16.2802 65.6535 16.0669 65.6255 15.8875 65.5219L11.8281 63.1781C11.6502 63.0738 11.5207 62.9033 11.4679 62.7038C11.4152 62.5044 11.4435 62.2922 11.5467 62.1135C11.6498 61.9349 11.8194 61.8042 12.0185 61.7502C12.2176 61.6961 12.43 61.723 12.6094 61.825L16.6687 64.1687C16.8482 64.2724 16.9791 64.443 17.0327 64.6431C17.0864 64.8433 17.0583 65.0565 16.9547 65.2359Z" fill="#077C6E"/>
<path fill-rule="evenodd" clip-rule="evenodd" d="M45.3125 62.5C45.3125 66.8148 41.8148 70.3125 37.5 70.3125C33.1852 70.3125 29.6875 66.8148 29.6875 62.5C29.6875 58.1852 33.1852 54.6875 37.5 54.6875C41.8148 54.6875 45.3125 58.1852 45.3125 62.5ZM46.875 62.5C46.875 67.6773 42.6773 71.875 37.5 71.875C32.3227 71.875 28.125 67.6773 28.125 62.5C28.125 57.3227 32.3227 53.125 37.5 53.125C42.6773 53.125 46.875 57.3227 46.875 62.5Z" fill="#077C6E"/>
<path fill-rule="evenodd" clip-rule="evenodd" d="M37.2187 63.2812C37.0115 63.2812 36.8128 63.1989 36.6663 63.0524C36.5198 62.9059 36.4375 62.7072 36.4375 62.5V57.0312C36.4375 56.824 36.5198 56.6253 36.6663 56.4788C36.8128 56.3323 37.0115 56.25 37.2187 56.25C37.426 56.25 37.6247 56.3323 37.7712 56.4788C37.9177 56.6253 38 56.824 38 57.0312V62.5C38 62.7072 37.9177 62.9059 37.7712 63.0524C37.6247 63.1989 37.426 63.2812 37.2187 63.2812Z" fill="#077C6E"/>
<path fill-rule="evenodd" clip-rule="evenodd" d="M41.9547 65.2359C41.8511 65.4154 41.6804 65.5463 41.4803 65.5999C41.2802 65.6535 41.0669 65.6255 40.8875 65.5219L36.8281 63.1781C36.6502 63.0738 36.5207 62.9033 36.4679 62.7038C36.4152 62.5044 36.4435 62.2922 36.5467 62.1135C36.6498 61.9349 36.8194 61.8042 37.0185 61.7502C37.2176 61.6961 37.43 61.723 37.6094 61.825L41.6687 64.1687C41.8482 64.2724 41.9791 64.443 42.0327 64.6431C42.0864 64.8433 42.0583 65.0565 41.9547 65.2359Z" fill="#077C6E"/>
<path fill-rule="evenodd" clip-rule="evenodd" d="M70.3125 62.5C70.3125 66.8148 66.8148 70.3125 62.5 70.3125C58.1852 70.3125 54.6875 66.8148 54.6875 62.5C54.6875 58.1852 58.1852 54.6875 62.5 54.6875C66.8148 54.6875 70.3125 58.1852 70.3125 62.5ZM71.875 62.5C71.875 67.6773 67.6773 71.875 62.5 71.875C57.3227 71.875 53.125 67.6773 53.125 62.5C53.125 57.3227 57.3227 53.125 62.5 53.125C67.6773 53.125 71.875 57.3227 71.875 62.5Z" fill="#077C6E"/>
<path fill-rule="evenodd" clip-rule="evenodd" d="M62.2187 63.2812C62.0115 63.2812 61.8128 63.1989 61.6663 63.0524C61.5198 62.9059 61.4375 62.7072 61.4375 62.5V57.0312C61.4375 56.824 61.5198 56.6253 61.6663 56.4788C61.8128 56.3323 62.0115 56.25 62.2187 56.25C62.426 56.25 62.6247 56.3323 62.7712 56.4788C62.9177 56.6253 63 56.824 63 57.0312V62.5C63 62.7072 62.9177 62.9059 62.7712 63.0524C62.6247 63.1989 62.426 63.2812 62.2187 63.2812Z" fill="#077C6E"/>
<path fill-rule="evenodd" clip-rule="evenodd" d="M66.9547 65.2359C66.8511 65.4154 66.6804 65.5463 66.4803 65.5999C66.2802 65.6535 66.0669 65.6255 65.8875 65.5219L61.8281 63.1781C61.6502 63.0738 61.5207 62.9033 61.4679 62.7038C61.4152 62.5044 61.4435 62.2922 61.5467 62.1135C61.6498 61.9349 61.8194 61.8042 62.0185 61.7502C62.2176 61.6961 62.43 61.723 62.6094 61.825L66.6687 64.1687C66.8482 64.2724 66.9791 64.443 67.0327 64.6431C67.0864 64.8433 67.0583 65.0565 66.9547 65.2359Z" fill="#077C6E"/>
<path fill-rule="evenodd" clip-rule="evenodd" d="M95.3125 62.5C95.3125 66.8148 91.8148 70.3125 87.5 70.3125C83.1852 70.3125 79.6875 66.8148 79.6875 62.5C79.6875 58.1852 83.1852 54.6875 87.5 54.6875C91.8148 54.6875 95.3125 58.1852 95.3125 62.5ZM96.875 62.5C96.875 67.6773 92.6773 71.875 87.5 71.875C82.3227 71.875 78.125 67.6773 78.125 62.5C78.125 57.3227 82.3227 53.125 87.5 53.125C92.6773 53.125 96.875 57.3227 96.875 62.5Z" fill="#077C6E"/>
<path fill-rule="evenodd" clip-rule="evenodd" d="M87.2187 63.2812C87.0115 63.2812 86.8128 63.1989 86.6663 63.0524C86.5198 62.9059 86.4375 62.7072 86.4375 62.5V57.0312C86.4375 56.824 86.5198 56.6253 86.6663 56.4788C86.8128 56.3323 87.0115 56.25 87.2187 56.25C87.426 56.25 87.6247 56.3323 87.7712 56.4788C87.9177 56.6253 88 56.824 88 57.0312V62.5C88 62.7072 87.9177 62.9059 87.7712 63.0524C87.6247 63.1989 87.426 63.2812 87.2187 63.2812Z" fill="#077C6E"/>
<path fill-rule="evenodd" clip-rule="evenodd" d="M91.9547 65.2359C91.8511 65.4154 91.6804 65.5463 91.4803 65.5999C91.2802 65.6535 91.0669 65.6255 90.8875 65.5219L86.8281 63.1781C86.6502 63.0738 86.5207 62.9033 86.4679 62.7038C86.4152 62.5044 86.4435 62.2922 86.5467 62.1135C86.6498 61.9349 86.8194 61.8042 87.0185 61.7502C87.2176 61.6961 87.43 61.723 87.6094 61.825L91.6687 64.1687C91.8482 64.2724 91.9791 64.443 92.0327 64.6431C92.0864 64.8433 92.0583 65.0565 91.9547 65.2359Z" fill="#077C6E"/>
<path fill-rule="evenodd" clip-rule="evenodd" d="M120.312 62.5C120.312 66.8148 116.815 70.3125 112.5 70.3125C108.185 70.3125 104.688 66.8148 104.688 62.5C104.688 58.1852 108.185 54.6875 112.5 54.6875C116.815 54.6875 120.312 58.1852 120.312 62.5ZM121.875 62.5C121.875 67.6773 117.677 71.875 112.5 71.875C107.323 71.875 103.125 67.6773 103.125 62.5C103.125 57.3227 107.323 53.125 112.5 53.125C117.677 53.125 121.875 57.3227 121.875 62.5Z" fill="#077C6E"/>
<path fill-rule="evenodd" clip-rule="evenodd" d="M112.219 63.2812C112.012 63.2812 111.813 63.1989 111.666 63.0524C111.52 62.9059 111.438 62.7072 111.438 62.5V57.0312C111.438 56.824 111.52 56.6253 111.666 56.4788C111.813 56.3323 112.012 56.25 112.219 56.25C112.426 56.25 112.625 56.3323 112.771 56.4788C112.918 56.6253 113 56.824 113 57.0312V62.5C113 62.7072 112.918 62.9059 112.771 63.0524C112.625 63.1989 112.426 63.2812 112.219 63.2812Z" fill="#077C6E"/>
<path fill-rule="evenodd" clip-rule="evenodd" d="M116.955 65.2359C116.851 65.4154 116.68 65.5463 116.48 65.5999C116.28 65.6535 116.067 65.6255 115.887 65.5219L111.828 63.1781C111.65 63.0738 111.521 62.9033 111.468 62.7038C111.415 62.5044 111.444 62.2922 111.547 62.1135C111.65 61.9349 111.819 61.8042 112.019 61.7502C112.218 61.6961 112.43 61.723 112.609 61.825L116.669 64.1687C116.848 64.2724 116.979 64.443 117.033 64.6431C117.086 64.8433 117.058 65.0565 116.955 65.2359Z" fill="#077C6E"/>
<path fill-rule="evenodd" clip-rule="evenodd" d="M20.3125 87.5C20.3125 91.8148 16.8148 95.3125 12.5 95.3125C8.18516 95.3125 4.6875 91.8148 4.6875 87.5C4.6875 83.1852 8.18516 79.6875 12.5 79.6875C16.8148 79.6875 20.3125 83.1852 20.3125 87.5ZM21.875 87.5C21.875 92.6773 17.6773 96.875 12.5 96.875C7.32266 96.875 3.125 92.6773 3.125 87.5C3.125 82.3227 7.32266 78.125 12.5 78.125C17.6773 78.125 21.875 82.3227 21.875 87.5Z" fill="#077C6E"/>
<path fill-rule="evenodd" clip-rule="evenodd" d="M12.2187 88.2812C12.0115 88.2812 11.8128 88.1989 11.6663 88.0524C11.5198 87.9059 11.4375 87.7072 11.4375 87.5V82.0312C11.4375 81.824 11.5198 81.6253 11.6663 81.4788C11.8128 81.3323 12.0115 81.25 12.2187 81.25C12.426 81.25 12.6247 81.3323 12.7712 81.4788C12.9177 81.6253 13 81.824 13 82.0312V87.5C13 87.7072 12.9177 87.9059 12.7712 88.0524C12.6247 88.1989 12.426 88.2812 12.2187 88.2812Z" fill="#077C6E"/>
<path fill-rule="evenodd" clip-rule="evenodd" d="M16.9547 90.2359C16.8511 90.4154 16.6804 90.5463 16.4803 90.5999C16.2802 90.6535 16.0669 90.6255 15.8875 90.5219L11.8281 88.1781C11.6502 88.0738 11.5207 87.9033 11.4679 87.7038C11.4152 87.5044 11.4435 87.2922 11.5467 87.1135C11.6498 86.9349 11.8194 86.8042 12.0185 86.7502C12.2176 86.6961 12.43 86.723 12.6094 86.825L16.6687 89.1687C16.8482 89.2724 16.9791 89.443 17.0327 89.6431C17.0864 89.8433 17.0583 90.0565 16.9547 90.2359Z" fill="#077C6E"/>
<path fill-rule="evenodd" clip-rule="evenodd" d="M45.3125 87.5C45.3125 91.8148 41.8148 95.3125 37.5 95.3125C33.1852 95.3125 29.6875 91.8148 29.6875 87.5C29.6875 83.1852 33.1852 79.6875 37.5 79.6875C41.8148 79.6875 45.3125 83.1852 45.3125 87.5ZM46.875 87.5C46.875 92.6773 42.6773 96.875 37.5 96.875C32.3227 96.875 28.125 92.6773 28.125 87.5C28.125 82.3227 32.3227 78.125 37.5 78.125C42.6773 78.125 46.875 82.3227 46.875 87.5Z" fill="#077C6E"/>
<path fill-rule="evenodd" clip-rule="evenodd" d="M37.2187 88.2812C37.0115 88.2812 36.8128 88.1989 36.6663 88.0524C36.5198 87.9059 36.4375 87.7072 36.4375 87.5V82.0312C36.4375 81.824 36.5198 81.6253 36.6663 81.4788C36.8128 81.3323 37.0115 81.25 37.2187 81.25C37.426 81.25 37.6247 81.3323 37.7712 81.4788C37.9177 81.6253 38 81.824 38 82.0312V87.5C38 87.7072 37.9177 87.9059 37.7712 88.0524C37.6247 88.1989 37.426 88.2812 37.2187 88.2812Z" fill="#077C6E"/>
<path fill-rule="evenodd" clip-rule="evenodd" d="M41.9547 90.2359C41.8511 90.4154 41.6804 90.5463 41.4803 90.5999C41.2802 90.6535 41.0669 90.6255 40.8875 90.5219L36.8281 88.1781C36.6502 88.0738 36.5207 87.9033 36.4679 87.7038C36.4152 87.5044 36.4435 87.2922 36.5467 87.1135C36.6498 86.9349 36.8194 86.8042 37.0185 86.7502C37.2176 86.6961 37.43 86.723 37.6094 86.825L41.6687 89.1687C41.8482 89.2724 41.9791 89.443 42.0327 89.6431C42.0864 89.8433 42.0583 90.0565 41.9547 90.2359Z" fill="#077C6E"/>
<path fill-rule="evenodd" clip-rule="evenodd" d="M70.3125 87.5C70.3125 91.8148 66.8148 95.3125 62.5 95.3125C58.1852 95.3125 54.6875 91.8148 54.6875 87.5C54.6875 83.1852 58.1852 79.6875 62.5 79.6875C66.8148 79.6875 70.3125 83.1852 70.3125 87.5ZM71.875 87.5C71.875 92.6773 67.6773 96.875 62.5 96.875C57.3227 96.875 53.125 92.6773 53.125 87.5C53.125 82.3227 57.3227 78.125 62.5 78.125C67.6773 78.125 71.875 82.3227 71.875 87.5Z" fill="#077C6E"/>
<path fill-rule="evenodd" clip-rule="evenodd" d="M62.2187 88.2812C62.0115 88.2812 61.8128 88.1989 61.6663 88.0524C61.5198 87.9059 61.4375 87.7072 61.4375 87.5V82.0312C61.4375 81.824 61.5198 81.6253 61.6663 81.4788C61.8128 81.3323 62.0115 81.25 62.2187 81.25C62.426 81.25 62.6247 81.3323 62.7712 81.4788C62.9177 81.6253 63 81.824 63 82.0312V87.5C63 87.7072 62.9177 87.9059 62.7712 88.0524C62.6247 88.1989 62.426 88.2812 62.2187 88.2812Z" fill="#077C6E"/>
<path fill-rule="evenodd" clip-rule="evenodd" d="M66.9547 90.2359C66.8511 90.4154 66.6804 90.5463 66.4803 90.5999C66.2802 90.6535 66.0669 90.6255 65.8875 90.5219L61.8281 88.1781C61.6502 88.0738 61.5207 87.9033 61.4679 87.7038C61.4152 87.5044 61.4435 87.2922 61.5467 87.1135C61.6498 86.9349 61.8194 86.8042 62.0185 86.7502C62.2176 86.6961 62.43 86.723 62.6094 86.825L66.6687 89.1687C66.8482 89.2724 66.9791 89.443 67.0327 89.6431C67.0864 89.8433 67.0583 90.0565 66.9547 90.2359Z" fill="#077C6E"/>
<path fill-rule="evenodd" clip-rule="evenodd" d="M95.3125 87.5C95.3125 91.8148 91.8148 95.3125 87.5 95.3125C83.1852 95.3125 79.6875 91.8148 79.6875 87.5C79.6875 83.1852 83.1852 79.6875 87.5 79.6875C91.8148 79.6875 95.3125 83.1852 95.3125 87.5ZM96.875 87.5C96.875 92.6773 92.6773 96.875 87.5 96.875C82.3227 96.875 78.125 92.6773 78.125 87.5C78.125 82.3227 82.3227 78.125 87.5 78.125C92.6773 78.125 96.875 82.3227 96.875 87.5Z" fill="#077C6E"/>
<path fill-rule="evenodd" clip-rule="evenodd" d="M87.2187 88.2812C87.0115 88.2812 86.8128 88.1989 86.6663 88.0524C86.5198 87.9059 86.4375 87.7072 86.4375 87.5V82.0312C86.4375 81.824 86.5198 81.6253 86.6663 81.4788C86.8128 81.3323 87.0115 81.25 87.2187 81.25C87.426 81.25 87.6247 81.3323 87.7712 81.4788C87.9177 81.6253 88 81.824 88 82.0312V87.5C88 87.7072 87.9177 87.9059 87.7712 88.0524C87.6247 88.1989 87.426 88.2812 87.2187 88.2812Z" fill="#077C6E"/>
<path fill-rule="evenodd" clip-rule="evenodd" d="M91.9547 90.2359C91.8511 90.4154 91.6804 90.5463 91.4803 90.5999C91.2802 90.6535 91.0669 90.6255 90.8875 90.5219L86.8281 88.1781C86.6502 88.0738 86.5207 87.9033 86.4679 87.7038C86.4152 87.5044 86.4435 87.2922 86.5467 87.1135C86.6498 86.9349 86.8194 86.8042 87.0185 86.7502C87.2176 86.6961 87.43 86.723 87.6094 86.825L91.6687 89.1687C91.8482 89.2724 91.9791 89.443 92.0327 89.6431C92.0864 89.8433 92.0583 90.0565 91.9547 90.2359Z" fill="#077C6E"/>
<path fill-rule="evenodd" clip-rule="evenodd" d="M120.312 87.5C120.312 91.8148 116.815 95.3125 112.5 95.3125C108.185 95.3125 104.688 91.8148 104.688 87.5C104.688 83.1852 108.185 79.6875 112.5 79.6875C116.815 79.6875 120.312 83.1852 120.312 87.5ZM121.875 87.5C121.875 92.6773 117.677 96.875 112.5 96.875C107.323 96.875 103.125 92.6773 103.125 87.5C103.125 82.3227 107.323 78.125 112.5 78.125C117.677 78.125 121.875 82.3227 121.875 87.5Z" fill="#077C6E"/>
<path fill-rule="evenodd" clip-rule="evenodd" d="M112.219 88.2812C112.012 88.2812 111.813 88.1989 111.666 88.0524C111.52 87.9059 111.438 87.7072 111.438 87.5V82.0312C111.438 81.824 111.52 81.6253 111.666 81.4788C111.813 81.3323 112.012 81.25 112.219 81.25C112.426 81.25 112.625 81.3323 112.771 81.4788C112.918 81.6253 113 81.824 113 82.0312V87.5C113 87.7072 112.918 87.9059 112.771 88.0524C112.625 88.1989 112.426 88.2812 112.219 88.2812Z" fill="#077C6E"/>
<path fill-rule="evenodd" clip-rule="evenodd" d="M116.955 90.2359C116.851 90.4154 116.68 90.5463 116.48 90.5999C116.28 90.6535 116.067 90.6255 115.887 90.5219L111.828 88.1781C111.65 88.0738 111.521 87.9033 111.468 87.7038C111.415 87.5044 111.444 87.2922 111.547 87.1135C111.65 86.9349 111.819 86.8042 112.019 86.7502C112.218 86.6961 112.43 86.723 112.609 86.825L116.669 89.1687C116.848 89.2724 116.979 89.443 117.033 89.6431C117.086 89.8433 117.058 90.0565 116.955 90.2359Z" fill="#077C6E"/>
</g>
<defs>
<clipPath id="clip0_1_2">
<rect width="125" height="125" fill="white"/>
</clipPath>
</defs>
</svg>
