<svg width="36" height="36" viewBox="0 0 36 36" fill="none" xmlns="http://www.w3.org/2000/svg">
<path fill-rule="evenodd" clip-rule="evenodd" d="M33 18C33 26.2845 26.2845 33 18 33C9.7155 33 3 26.2845 3 18C3 9.7155 9.7155 3 18 3C26.2845 3 33 9.7155 33 18ZM36 18C36 27.9405 27.9405 36 18 36C8.0595 36 0 27.9405 0 18C0 8.0595 8.0595 0 18 0C27.9405 0 36 8.0595 36 18Z" fill="black"/>
<path fill-rule="evenodd" clip-rule="evenodd" d="M17.46 19.5C17.0622 19.5 16.6806 19.342 16.3993 19.0607C16.118 18.7794 15.96 18.3978 15.96 18V7.5C15.96 7.10218 16.118 6.72064 16.3993 6.43934C16.6806 6.15804 17.0622 6 17.46 6C17.8578 6 18.2393 6.15804 18.5207 6.43934C18.802 6.72064 18.96 7.10218 18.96 7.5V18C18.96 18.3978 18.802 18.7794 18.5207 19.0607C18.2393 19.342 17.8578 19.5 17.46 19.5Z" fill="black"/>
<path fill-rule="evenodd" clip-rule="evenodd" d="M26.553 23.253C26.3541 23.5975 26.0265 23.8489 25.6422 23.9519C25.258 24.0548 24.8485 24.0009 24.504 23.802L16.71 19.302C16.3683 19.1017 16.1197 18.7743 16.0185 18.3914C15.9172 18.0085 15.9715 17.601 16.1696 17.258C16.3677 16.915 16.6934 16.6642 17.0756 16.5604C17.4579 16.4566 17.8657 16.5082 18.21 16.704L26.004 21.204C26.3485 21.4029 26.5999 21.7306 26.7029 22.1148C26.8058 22.4991 26.7519 22.9085 26.553 23.253Z" fill="black"/>
</svg>
